<svg width="450" height="600" viewBox="0 0 450 600" fill="none" xmlns="http://www.w3.org/2000/svg">
<g clip-path="url(#clip0_5235_19113)">
<path fill-rule="evenodd" clip-rule="evenodd" d="M206.93 169.133C248.868 97.2097 341.175 72.8928 413.107 114.836C485.03 156.774 509.347 249.081 467.404 321.014L432.823 380.318C429.485 386.043 422.137 387.978 416.412 384.64C410.687 381.302 408.752 373.954 412.09 368.229L446.671 308.924C481.937 248.443 461.491 170.831 401.018 135.569C340.537 100.303 262.925 120.748 227.663 181.222L122.633 361.347C119.294 367.072 111.947 369.007 106.222 365.669C100.496 362.331 98.5614 354.983 101.9 349.258L206.93 169.133ZM343.448 234.301C349.173 237.639 351.108 244.987 347.77 250.712L242.74 430.837C200.802 502.76 108.495 527.077 36.5624 485.133C-35.3605 443.195 -59.6775 350.889 -17.7339 278.956L16.8463 219.651C20.1847 213.926 27.5321 211.991 33.2574 215.33C38.9826 218.668 40.9175 226.015 37.5792 231.741L2.99895 291.045C-32.2673 351.526 -11.8219 429.139 48.6516 464.4C109.133 499.667 186.745 479.221 222.007 418.748L327.037 238.623C330.375 232.897 337.723 230.962 343.448 234.301ZM288.039 215.79C303.953 188.499 338.973 179.276 366.265 195.19C393.557 211.104 402.779 246.124 386.866 273.416L298.257 425.379C294.918 431.104 296.853 438.451 302.578 441.79C308.304 445.128 315.651 443.193 318.99 437.468L407.598 285.505C430.189 246.763 417.097 197.047 378.354 174.457C339.612 151.866 289.897 164.959 267.306 203.701L162.231 383.904C146.317 411.196 111.297 420.418 84.0049 404.505C56.713 388.591 47.4905 353.571 63.4042 326.279L151.509 175.18C154.848 169.454 152.913 162.107 147.188 158.769C141.462 155.43 134.115 157.365 130.777 163.09L42.6714 314.19C20.0809 352.932 33.1734 402.647 71.9156 425.238C110.658 447.828 160.373 434.736 182.964 395.993L288.039 215.79Z" fill="url(#paint0_linear_5235_19113)"/>
</g>
<defs>
<linearGradient id="paint0_linear_5235_19113" x1="33.2152" y1="219.539" x2="420.593" y2="265.543" gradientUnits="userSpaceOnUse">
<stop stop-color="#2461BE"/>
<stop offset="0.311542" stop-color="#D38AAC"/>
<stop offset="0.598018" stop-color="#E19D3D"/>
<stop offset="0.931371" stop-color="#386025"/>
</linearGradient>
<clipPath id="clip0_5235_19113">
<rect width="450" height="600" fill="white"/>
</clipPath>
</defs>
</svg>
